<?xml version="1.0" encoding="UTF-8"?>
<!DOCTYPE svg PUBLIC "-//W3C//DTD SVG 1.1//EN" "http://www.w3.org/Graphics/SVG/1.1/DTD/svg11.dtd">
<!-- Creator: CorelDRAW -->
<svg xmlns="http://www.w3.org/2000/svg" xml:space="preserve" width="210mm" height="195mm" style="shape-rendering:geometricPrecision; text-rendering:geometricPrecision; image-rendering:optimizeQuality; fill-rule:evenodd; clip-rule:evenodd"
viewBox="0 0 210 195"
 xmlns:xlink="http://www.w3.org/1999/xlink">
 <defs>
  <style type="text/css">
   <![CDATA[
    .fil0 {fill:#838281}
   ]]>
  </style>
 </defs>
 <g id="Layer_x0020_1">
  <metadata id="CorelCorpID_0Corel-Layer"/>
  <path class="fil0" d="M209.149 194.011l-208.298 0 0 -96.8241 14.1294 0 0 -30.5156 29.4049 0 0 15.2755 4.5825 0 0 -52.1786 18.0871 0 0 43.4301 4.1659 0 0 -72.2101 41.7293 0 0 64.2599 11.873 0 0 -23.9891 12.8103 0 0 -20.9684 22.7045 0 0 64.086 8.3319 0 0 -19.1285 25.8289 0 0 31.9388 14.6501 0 0 96.8241zm-57.0736 -159.07l0 -12.1854 -4.8601 0 0 12.1854 4.8601 0zm-6.9086 0l0 -12.1854 -4.8602 0 0 12.1854 4.8602 0zm38.5699 45.0617l0 -12.2199 -4.895 0 0 12.2199 4.895 0zm-6.9431 0l0 -12.2199 -4.8606 0 0 12.2199 4.8606 0zm-31.6268 -30.2032l0 -12.2199 -4.8602 0 0 12.2199 4.8602 0zm31.6268 45.062l0 -12.2202 -4.8606 0 0 12.2202 4.8606 0zm-77.1744 -76.7926l0 -12.2203 -4.895 0 0 12.2203 4.895 0zm-9.0609 0l0 -12.2203 -4.895 0 0 12.2203 4.895 0zm-9.2693 0l0 -12.2203 -4.8605 0 0 12.2203 4.8605 0zm9.2693 16.6638l0 -12.1854 -4.895 0 0 12.1854 4.895 0zm75.0565 82.0001l0 -12.2203 -4.895 0 0 12.2203 4.895 0zm-84.3258 -82.0001l0 -12.1854 -4.8605 0 0 12.1854 4.8605 0zm77.313 82.0001l0 -12.2203 -4.895 0 0 12.2203 4.895 0zm-77.313 -65.6138l0 -12.2203 -4.8605 0 0 12.2203 4.8605 0zm77.313 80.4374l0 -12.1854 -4.895 0 0 12.1854 4.895 0zm-93.5602 -87.0337l0 -12.1161 -4.895 0 0 12.1161 4.895 0zm-9.2693 0l0 -12.1161 -4.895 0 0 12.1161 4.895 0zm39.6808 44.6451l0 -12.2199 -4.895 0 0 12.2199 4.895 0zm-9.2693 0l0 -12.2199 -4.895 0 0 12.2199 4.895 0zm-30.4115 -27.8771l0 -12.2203 -4.895 0 0 12.2203 4.895 0zm59.3994 72.6267l0 -12.2203 -4.895 0 0 12.2203 4.895 0zm-28.9879 -28.0858l0 -12.1854 -4.895 0 0 12.1854 4.895 0zm21.9754 28.0858l0 -12.2203 -4.895 0 0 12.2203 4.895 0zm0 14.7543l0 -12.2203 -4.895 0 0 12.2203 4.895 0zm-75.9942 -66.1346l0 -12.1854 -4.8602 0 0 12.1854 4.8602 0zm17.0111 21.0729l0 -12.2202 -4.895 0 0 12.2202 4.895 0zm-25.4472 -21.0729l0 -12.1854 -4.8601 0 0 12.1854 4.8601 0zm18.5041 21.0729l0 -12.2202 -4.8606 0 0 12.2202 4.8606 0zm0 14.8236l0 -12.1854 -4.8606 0 0 12.1854 4.8606 0z"/>
 </g>
</svg>
